<mxfile host="Electron" modified="2023-11-09T22:44:33.402Z" agent="Mozilla/5.0 (Windows NT 10.0; Win64; x64) AppleWebKit/537.36 (KHTML, like Gecko) draw.io/21.6.8 Chrome/114.0.5735.289 Electron/25.5.0 Safari/537.36" etag="j8FebhBtO51pdX7nhHyq" version="21.6.8" type="device">
  <diagram name="Page-1" id="tNFKdMyMKL69VixrteH1">
    <mxGraphModel dx="792" dy="1228" grid="1" gridSize="10" guides="1" tooltips="1" connect="1" arrows="1" fold="1" page="1" pageScale="1" pageWidth="827" pageHeight="1169" math="0" shadow="0">
      <root>
        <mxCell id="0" />
        <mxCell id="1" parent="0" />
        <mxCell id="yOw9Vicc4QWqPHd1ReBU-1" value="&lt;p style=&quot;margin:0px;margin-top:4px;margin-left:10px;text-align:left;&quot;&gt;&lt;b&gt;act UC01_SetPreGameData&lt;/b&gt;&lt;/p&gt;&lt;p style=&quot;margin:0px;margin-top:4px;margin-left:10px;text-align:left;&quot;&gt;&lt;b&gt;&lt;br&gt;&lt;/b&gt;&lt;/p&gt;" style="html=1;shape=mxgraph.sysml.package;html=1;overflow=fill;whiteSpace=wrap;labelX=172;" parent="1" vertex="1">
          <mxGeometry width="790" height="1060" as="geometry" />
        </mxCell>
        <mxCell id="yOw9Vicc4QWqPHd1ReBU-6" style="edgeStyle=orthogonalEdgeStyle;rounded=0;orthogonalLoop=1;jettySize=auto;html=1;entryX=0.5;entryY=0;entryDx=0;entryDy=0;entryPerimeter=0;" parent="1" source="yOw9Vicc4QWqPHd1ReBU-2" target="60CE7GuSHBQ50yg11hoa-2" edge="1">
          <mxGeometry relative="1" as="geometry">
            <mxPoint x="371" y="120" as="targetPoint" />
          </mxGeometry>
        </mxCell>
        <mxCell id="yOw9Vicc4QWqPHd1ReBU-2" value="" style="shape=ellipse;html=1;fillColor=strokeColor;strokeWidth=2;verticalLabelPosition=bottom;verticalAlignment=top;perimeter=ellipsePerimeter;" parent="1" vertex="1">
          <mxGeometry x="350" y="20" width="40" height="40" as="geometry" />
        </mxCell>
        <mxCell id="yOw9Vicc4QWqPHd1ReBU-8" value="" style="edgeStyle=orthogonalEdgeStyle;rounded=0;orthogonalLoop=1;jettySize=auto;html=1;exitX=0.5;exitY=1;exitDx=0;exitDy=0;exitPerimeter=0;" parent="1" source="60CE7GuSHBQ50yg11hoa-2" target="yOw9Vicc4QWqPHd1ReBU-7" edge="1">
          <mxGeometry relative="1" as="geometry">
            <mxPoint x="371" y="200" as="sourcePoint" />
          </mxGeometry>
        </mxCell>
        <mxCell id="yOw9Vicc4QWqPHd1ReBU-10" value="" style="edgeStyle=orthogonalEdgeStyle;rounded=0;orthogonalLoop=1;jettySize=auto;html=1;" parent="1" source="yOw9Vicc4QWqPHd1ReBU-7" target="yOw9Vicc4QWqPHd1ReBU-9" edge="1">
          <mxGeometry relative="1" as="geometry" />
        </mxCell>
        <mxCell id="yOw9Vicc4QWqPHd1ReBU-7" value="Create SoftAP" style="whiteSpace=wrap;html=1;rounded=1;" parent="1" vertex="1">
          <mxGeometry x="310" y="200" width="120" height="60" as="geometry" />
        </mxCell>
        <mxCell id="60CE7GuSHBQ50yg11hoa-4" value="" style="edgeStyle=orthogonalEdgeStyle;rounded=0;orthogonalLoop=1;jettySize=auto;html=1;" parent="1" source="yOw9Vicc4QWqPHd1ReBU-9" target="yOw9Vicc4QWqPHd1ReBU-12" edge="1">
          <mxGeometry relative="1" as="geometry" />
        </mxCell>
        <mxCell id="yOw9Vicc4QWqPHd1ReBU-9" value="Start HTTP server" style="whiteSpace=wrap;html=1;rounded=1;" parent="1" vertex="1">
          <mxGeometry x="290" y="290" width="160" height="60" as="geometry" />
        </mxCell>
        <mxCell id="60CE7GuSHBQ50yg11hoa-14" style="edgeStyle=orthogonalEdgeStyle;rounded=0;orthogonalLoop=1;jettySize=auto;html=1;entryX=0.5;entryY=0;entryDx=0;entryDy=0;" parent="1" source="yOw9Vicc4QWqPHd1ReBU-12" target="60CE7GuSHBQ50yg11hoa-13" edge="1">
          <mxGeometry relative="1" as="geometry" />
        </mxCell>
        <mxCell id="yOw9Vicc4QWqPHd1ReBU-12" value="Post HTML Form to gamedata server page" style="whiteSpace=wrap;html=1;rounded=1;" parent="1" vertex="1">
          <mxGeometry x="290" y="380" width="160" height="60" as="geometry" />
        </mxCell>
        <mxCell id="yOw9Vicc4QWqPHd1ReBU-16" value="" style="html=1;shape=mxgraph.sysml.actFinal;strokeWidth=2;verticalLabelPosition=bottom;verticalAlignment=top;" parent="1" vertex="1">
          <mxGeometry x="670" y="970" width="40" height="40" as="geometry" />
        </mxCell>
        <mxCell id="60CE7GuSHBQ50yg11hoa-2" value="Start UC01" style="html=1;shape=mxgraph.sysml.accEvent;strokeWidth=2;whiteSpace=wrap;align=center;" parent="1" vertex="1">
          <mxGeometry x="320" y="110" width="100" height="60" as="geometry" />
        </mxCell>
        <mxCell id="60CE7GuSHBQ50yg11hoa-19" style="edgeStyle=orthogonalEdgeStyle;rounded=0;orthogonalLoop=1;jettySize=auto;html=1;entryX=0.5;entryY=0;entryDx=0;entryDy=0;" parent="1" source="60CE7GuSHBQ50yg11hoa-7" target="60CE7GuSHBQ50yg11hoa-10" edge="1">
          <mxGeometry relative="1" as="geometry" />
        </mxCell>
        <mxCell id="60CE7GuSHBQ50yg11hoa-7" value="Submit button pressed" style="html=1;shape=mxgraph.sysml.accEvent;strokeWidth=2;whiteSpace=wrap;align=center;" parent="1" vertex="1">
          <mxGeometry x="130" y="640" width="170" height="60" as="geometry" />
        </mxCell>
        <mxCell id="60CE7GuSHBQ50yg11hoa-15" style="edgeStyle=orthogonalEdgeStyle;rounded=0;orthogonalLoop=1;jettySize=auto;html=1;entryX=-0.079;entryY=0.519;entryDx=0;entryDy=0;entryPerimeter=0;" parent="1" source="60CE7GuSHBQ50yg11hoa-10" target="60CE7GuSHBQ50yg11hoa-13" edge="1">
          <mxGeometry relative="1" as="geometry">
            <mxPoint x="320" y="510" as="targetPoint" />
            <Array as="points">
              <mxPoint x="60" y="790" />
              <mxPoint x="60" y="511" />
            </Array>
          </mxGeometry>
        </mxCell>
        <mxCell id="60CE7GuSHBQ50yg11hoa-10" value="Store given game data" style="whiteSpace=wrap;html=1;rounded=1;" parent="1" vertex="1">
          <mxGeometry x="85" y="760" width="260" height="60" as="geometry" />
        </mxCell>
        <mxCell id="60CE7GuSHBQ50yg11hoa-22" style="edgeStyle=orthogonalEdgeStyle;rounded=0;orthogonalLoop=1;jettySize=auto;html=1;entryX=0.5;entryY=0;entryDx=0;entryDy=0;entryPerimeter=0;" parent="1" source="60CE7GuSHBQ50yg11hoa-12" target="60CE7GuSHBQ50yg11hoa-21" edge="1">
          <mxGeometry relative="1" as="geometry" />
        </mxCell>
        <mxCell id="60CE7GuSHBQ50yg11hoa-12" value="Player data available" style="html=1;shape=mxgraph.sysml.accEvent;strokeWidth=2;whiteSpace=wrap;align=center;" parent="1" vertex="1">
          <mxGeometry x="450" y="640" width="170" height="60" as="geometry" />
        </mxCell>
        <mxCell id="60CE7GuSHBQ50yg11hoa-17" style="edgeStyle=orthogonalEdgeStyle;rounded=0;orthogonalLoop=1;jettySize=auto;html=1;entryX=0.5;entryY=0;entryDx=0;entryDy=0;" parent="1" source="60CE7GuSHBQ50yg11hoa-13" target="60CE7GuSHBQ50yg11hoa-16" edge="1">
          <mxGeometry relative="1" as="geometry" />
        </mxCell>
        <mxCell id="60CE7GuSHBQ50yg11hoa-13" value="" style="rhombus;whiteSpace=wrap;html=1;" parent="1" vertex="1">
          <mxGeometry x="350" y="490" width="40" height="40" as="geometry" />
        </mxCell>
        <mxCell id="60CE7GuSHBQ50yg11hoa-18" style="edgeStyle=orthogonalEdgeStyle;rounded=0;orthogonalLoop=1;jettySize=auto;html=1;exitX=0;exitY=0.5;exitDx=0;exitDy=0;entryX=0.471;entryY=0;entryDx=0;entryDy=0;entryPerimeter=0;" parent="1" source="60CE7GuSHBQ50yg11hoa-16" target="60CE7GuSHBQ50yg11hoa-7" edge="1">
          <mxGeometry relative="1" as="geometry">
            <mxPoint x="320" y="570" as="sourcePoint" />
            <mxPoint x="220" y="630" as="targetPoint" />
            <Array as="points">
              <mxPoint x="210" y="570" />
            </Array>
          </mxGeometry>
        </mxCell>
        <mxCell id="60CE7GuSHBQ50yg11hoa-20" style="edgeStyle=orthogonalEdgeStyle;rounded=0;orthogonalLoop=1;jettySize=auto;html=1;" parent="1" source="60CE7GuSHBQ50yg11hoa-16" target="60CE7GuSHBQ50yg11hoa-12" edge="1">
          <mxGeometry relative="1" as="geometry">
            <Array as="points">
              <mxPoint x="530" y="570" />
            </Array>
          </mxGeometry>
        </mxCell>
        <mxCell id="60CE7GuSHBQ50yg11hoa-16" value="" style="rhombus;whiteSpace=wrap;html=1;" parent="1" vertex="1">
          <mxGeometry x="350" y="550" width="40" height="40" as="geometry" />
        </mxCell>
        <mxCell id="60CE7GuSHBQ50yg11hoa-24" value="" style="edgeStyle=orthogonalEdgeStyle;rounded=0;orthogonalLoop=1;jettySize=auto;html=1;" parent="1" source="60CE7GuSHBQ50yg11hoa-21" target="60CE7GuSHBQ50yg11hoa-23" edge="1">
          <mxGeometry relative="1" as="geometry" />
        </mxCell>
        <mxCell id="60CE7GuSHBQ50yg11hoa-21" value="All players ready" style="html=1;shape=mxgraph.sysml.accEvent;strokeWidth=2;whiteSpace=wrap;align=center;" parent="1" vertex="1">
          <mxGeometry x="450" y="750" width="170" height="60" as="geometry" />
        </mxCell>
        <mxCell id="60CE7GuSHBQ50yg11hoa-26" value="" style="edgeStyle=orthogonalEdgeStyle;rounded=0;orthogonalLoop=1;jettySize=auto;html=1;" parent="1" source="60CE7GuSHBQ50yg11hoa-23" target="60CE7GuSHBQ50yg11hoa-25" edge="1">
          <mxGeometry relative="1" as="geometry" />
        </mxCell>
        <mxCell id="60CE7GuSHBQ50yg11hoa-23" value="Post game start data to game start server page" style="whiteSpace=wrap;html=1;rounded=1;" parent="1" vertex="1">
          <mxGeometry x="455" y="860" width="160" height="60" as="geometry" />
        </mxCell>
        <mxCell id="60CE7GuSHBQ50yg11hoa-27" value="" style="edgeStyle=orthogonalEdgeStyle;rounded=0;orthogonalLoop=1;jettySize=auto;html=1;" parent="1" source="60CE7GuSHBQ50yg11hoa-25" target="yOw9Vicc4QWqPHd1ReBU-16" edge="1">
          <mxGeometry relative="1" as="geometry" />
        </mxCell>
        <mxCell id="60CE7GuSHBQ50yg11hoa-25" value="Start UC02" style="html=1;shape=mxgraph.sysml.sendSigAct;strokeWidth=2;whiteSpace=wrap;align=center;" parent="1" vertex="1">
          <mxGeometry x="485" y="960" width="100" height="60" as="geometry" />
        </mxCell>
      </root>
    </mxGraphModel>
  </diagram>
</mxfile>
